<svg xmlns="http://www.w3.org/2000/svg" width="600" height="320" viewBox="0 0 600 320">
  <defs>
    <linearGradient id="g" x1="0%" y1="0%" x2="100%" y2="100%">
      <stop offset="0%" stop-color="#414bd7" stop-opacity="0.15"/>
      <stop offset="100%" stop-color="#7aa2f7" stop-opacity="0.05"/>
    </linearGradient>
  </defs>
  <rect width="600" height="320" rx="12" fill="#1a1b27" stroke="#2d3355" stroke-width="1.5"/>
  <rect width="600" height="320" rx="12" fill="url(#g)"/>

  <!-- Header -->
  <image x="20" y="18" width="40" height="40" rx="20" href="https://avatars.githubusercontent.com/u/96095506?v=4" clip-path="circle(20px at 40px 38px)"/>
  <text x="72" y="34" font-family="Segoe UI, system-ui, sans-serif" font-size="16" font-weight="700" fill="#e0e0e0">LEAV</text>
  <text x="72" y="52" font-family="Segoe UI, system-ui, sans-serif" font-size="12" fill="#a9b1d6">@leav-dev</text>

  <!-- Stats Grid -->
  
  <text x="140" y="80" font-family="Segoe UI, system-ui, sans-serif" font-size="11" fill="#a9b1d6">Repos</text>
  <text x="140" y="98" font-family="Segoe UI, system-ui, sans-serif" font-size="18" font-weight="700" fill="#7aa2f7">5</text>
  <text x="300" y="80" font-family="Segoe UI, system-ui, sans-serif" font-size="11" fill="#a9b1d6">Stars</text>
  <text x="300" y="98" font-family="Segoe UI, system-ui, sans-serif" font-size="18" font-weight="700" fill="#ff9e64">0</text>
  <text x="460" y="80" font-family="Segoe UI, system-ui, sans-serif" font-size="11" fill="#a9b1d6">Forks</text>
  <text x="460" y="98" font-family="Segoe UI, system-ui, sans-serif" font-size="18" font-weight="700" fill="#9ece6a">0</text>
  <text x="140" y="115" font-family="Segoe UI, system-ui, sans-serif" font-size="11" fill="#a9b1d6">Followers</text>
  <text x="140" y="133" font-family="Segoe UI, system-ui, sans-serif" font-size="18" font-weight="700" fill="#bb9af7">0</text>
  <text x="300" y="115" font-family="Segoe UI, system-ui, sans-serif" font-size="11" fill="#a9b1d6">Following</text>
  <text x="300" y="133" font-family="Segoe UI, system-ui, sans-serif" font-size="18" font-weight="700" fill="#7dcfff">2</text>

  <!-- Divider -->
  <line x1="20" y1="150" x2="580" y2="150" stroke="#2d3355" stroke-width="1"/>

  <!-- Streak & Commits -->
  <text x="20" y="176" font-family="Segoe UI, system-ui, sans-serif" font-size="12" font-weight="600" fill="#e0e0e0">Contributions</text>
  
  <text x="140" y="200" font-family="Segoe UI, system-ui, sans-serif" font-size="11" fill="#a9b1d6">Current Streak</text>
  <text x="140" y="218" font-family="Segoe UI, system-ui, sans-serif" font-size="16" font-weight="700" fill="#9ece6a">4 days</text>
  <text x="300" y="200" font-family="Segoe UI, system-ui, sans-serif" font-size="11" fill="#a9b1d6">Longest Streak</text>
  <text x="300" y="218" font-family="Segoe UI, system-ui, sans-serif" font-size="16" font-weight="700" fill="#ff9e64">4 days</text>
  <text x="460" y="200" font-family="Segoe UI, system-ui, sans-serif" font-size="11" fill="#a9b1d6">Commits</text>
  <text x="460" y="218" font-family="Segoe UI, system-ui, sans-serif" font-size="16" font-weight="700" fill="#7aa2f7">108</text>

  <!-- Activity Bar (micro heatmap) -->
  <rect x="20" y="230" width="9" height="9" rx="2" fill="#7aa2f7" opacity="0.1"/><rect x="20" y="241" width="9" height="9" rx="2" fill="#7aa2f7" opacity="0.1"/><rect x="20" y="252" width="9" height="9" rx="2" fill="#7aa2f7" opacity="0.1"/><rect x="20" y="263" width="9" height="9" rx="2" fill="#7aa2f7" opacity="0.1"/><rect x="20" y="274" width="9" height="9" rx="2" fill="#7aa2f7" opacity="0.1"/><rect x="20" y="285" width="9" height="9" rx="2" fill="#7aa2f7" opacity="0.1"/><rect x="20" y="296" width="9" height="9" rx="2" fill="#7aa2f7" opacity="0.1"/><rect x="31" y="230" width="9" height="9" rx="2" fill="#7aa2f7" opacity="0.1"/><rect x="31" y="241" width="9" height="9" rx="2" fill="#7aa2f7" opacity="0.1"/><rect x="31" y="252" width="9" height="9" rx="2" fill="#7aa2f7" opacity="0.1"/><rect x="31" y="263" width="9" height="9" rx="2" fill="#7aa2f7" opacity="0.1"/><rect x="31" y="274" width="9" height="9" rx="2" fill="#7aa2f7" opacity="0.1"/><rect x="31" y="285" width="9" height="9" rx="2" fill="#7aa2f7" opacity="0.1"/><rect x="31" y="296" width="9" height="9" rx="2" fill="#7aa2f7" opacity="0.1"/><rect x="42" y="230" width="9" height="9" rx="2" fill="#7aa2f7" opacity="0.2"/><rect x="42" y="241" width="9" height="9" rx="2" fill="#7aa2f7" opacity="0.1"/><rect x="42" y="252" width="9" height="9" rx="2" fill="#7aa2f7" opacity="0.1"/><rect x="42" y="263" width="9" height="9" rx="2" fill="#7aa2f7" opacity="0.1"/><rect x="42" y="274" width="9" height="9" rx="2" fill="#7aa2f7" opacity="0.2"/><rect x="42" y="285" width="9" height="9" rx="2" fill="#7aa2f7" opacity="0.2"/><rect x="42" y="296" width="9" height="9" rx="2" fill="#7aa2f7" opacity="0.2"/><rect x="53" y="230" width="9" height="9" rx="2" fill="#7aa2f7" opacity="0.2"/><rect x="53" y="241" width="9" height="9" rx="2" fill="#7aa2f7" opacity="0.1"/><rect x="53" y="252" width="9" height="9" rx="2" fill="#7aa2f7" opacity="0.1"/><rect x="53" y="263" width="9" height="9" rx="2" fill="#7aa2f7" opacity="0.1"/><rect x="53" y="274" width="9" height="9" rx="2" fill="#7aa2f7" opacity="0.1"/><rect x="53" y="285" width="9" height="9" rx="2" fill="#7aa2f7" opacity="0.1"/><rect x="53" y="296" width="9" height="9" rx="2" fill="#7aa2f7" opacity="0.1"/><rect x="64" y="230" width="9" height="9" rx="2" fill="#7aa2f7" opacity="0.1"/><rect x="64" y="241" width="9" height="9" rx="2" fill="#7aa2f7" opacity="0.1"/><rect x="64" y="252" width="9" height="9" rx="2" fill="#7aa2f7" opacity="0.1"/><rect x="64" y="263" width="9" height="9" rx="2" fill="#7aa2f7" opacity="0.1"/><rect x="64" y="274" width="9" height="9" rx="2" fill="#7aa2f7" opacity="0.1"/><rect x="64" y="285" width="9" height="9" rx="2" fill="#7aa2f7" opacity="0.1"/><rect x="64" y="296" width="9" height="9" rx="2" fill="#7aa2f7" opacity="0.21739130434782608"/><rect x="75" y="230" width="9" height="9" rx="2" fill="#7aa2f7" opacity="0.1"/><rect x="75" y="241" width="9" height="9" rx="2" fill="#7aa2f7" opacity="0.2608695652173913"/><rect x="75" y="252" width="9" height="9" rx="2" fill="#7aa2f7" opacity="0.1"/><rect x="75" y="263" width="9" height="9" rx="2" fill="#7aa2f7" opacity="0.1"/><rect x="75" y="274" width="9" height="9" rx="2" fill="#7aa2f7" opacity="0.2"/><rect x="75" y="285" width="9" height="9" rx="2" fill="#7aa2f7" opacity="0.21739130434782608"/><rect x="75" y="296" width="9" height="9" rx="2" fill="#7aa2f7" opacity="0.1"/><rect x="86" y="230" width="9" height="9" rx="2" fill="#7aa2f7" opacity="0.1"/><rect x="86" y="241" width="9" height="9" rx="2" fill="#7aa2f7" opacity="0.2"/><rect x="86" y="252" width="9" height="9" rx="2" fill="#7aa2f7" opacity="0.2"/><rect x="86" y="263" width="9" height="9" rx="2" fill="#7aa2f7" opacity="0.1"/><rect x="86" y="274" width="9" height="9" rx="2" fill="#7aa2f7" opacity="0.2"/><rect x="86" y="285" width="9" height="9" rx="2" fill="#7aa2f7" opacity="0.1"/><rect x="86" y="296" width="9" height="9" rx="2" fill="#7aa2f7" opacity="0.1"/><rect x="97" y="230" width="9" height="9" rx="2" fill="#7aa2f7" opacity="0.1"/><rect x="97" y="241" width="9" height="9" rx="2" fill="#7aa2f7" opacity="0.1"/><rect x="97" y="252" width="9" height="9" rx="2" fill="#7aa2f7" opacity="0.2608695652173913"/><rect x="97" y="263" width="9" height="9" rx="2" fill="#7aa2f7" opacity="0.2"/><rect x="97" y="274" width="9" height="9" rx="2" fill="#7aa2f7" opacity="0.2"/><rect x="97" y="285" width="9" height="9" rx="2" fill="#7aa2f7" opacity="0.1"/><rect x="97" y="296" width="9" height="9" rx="2" fill="#7aa2f7" opacity="0.1"/><rect x="108" y="230" width="9" height="9" rx="2" fill="#7aa2f7" opacity="0.1"/><rect x="108" y="241" width="9" height="9" rx="2" fill="#7aa2f7" opacity="0.1"/><rect x="108" y="252" width="9" height="9" rx="2" fill="#7aa2f7" opacity="0.1"/><rect x="108" y="263" width="9" height="9" rx="2" fill="#7aa2f7" opacity="0.1"/><rect x="108" y="274" width="9" height="9" rx="2" fill="#7aa2f7" opacity="0.1"/><rect x="108" y="285" width="9" height="9" rx="2" fill="#7aa2f7" opacity="0.1"/><rect x="108" y="296" width="9" height="9" rx="2" fill="#7aa2f7" opacity="0.1"/><rect x="119" y="230" width="9" height="9" rx="2" fill="#7aa2f7" opacity="0.1"/><rect x="119" y="241" width="9" height="9" rx="2" fill="#7aa2f7" opacity="0.1"/><rect x="119" y="252" width="9" height="9" rx="2" fill="#7aa2f7" opacity="0.1"/><rect x="119" y="263" width="9" height="9" rx="2" fill="#7aa2f7" opacity="0.1"/><rect x="119" y="274" width="9" height="9" rx="2" fill="#7aa2f7" opacity="0.1"/><rect x="119" y="285" width="9" height="9" rx="2" fill="#7aa2f7" opacity="0.1"/><rect x="119" y="296" width="9" height="9" rx="2" fill="#7aa2f7" opacity="0.1"/><rect x="130" y="230" width="9" height="9" rx="2" fill="#7aa2f7" opacity="0.1"/><rect x="130" y="241" width="9" height="9" rx="2" fill="#7aa2f7" opacity="0.1"/><rect x="130" y="252" width="9" height="9" rx="2" fill="#7aa2f7" opacity="0.1"/><rect x="130" y="263" width="9" height="9" rx="2" fill="#7aa2f7" opacity="0.2"/><rect x="130" y="274" width="9" height="9" rx="2" fill="#7aa2f7" opacity="0.1"/><rect x="130" y="285" width="9" height="9" rx="2" fill="#7aa2f7" opacity="0.1"/><rect x="130" y="296" width="9" height="9" rx="2" fill="#7aa2f7" opacity="0.1"/><rect x="141" y="230" width="9" height="9" rx="2" fill="#7aa2f7" opacity="0.1"/><rect x="141" y="241" width="9" height="9" rx="2" fill="#7aa2f7" opacity="0.1"/><rect x="141" y="252" width="9" height="9" rx="2" fill="#7aa2f7" opacity="0.1"/><rect x="141" y="263" width="9" height="9" rx="2" fill="#7aa2f7" opacity="1"/><rect x="141" y="274" width="9" height="9" rx="2" fill="#7aa2f7" opacity="0.2"/><rect x="141" y="285" width="9" height="9" rx="2" fill="#7aa2f7" opacity="0.2"/><rect x="141" y="296" width="9" height="9" rx="2" fill="#7aa2f7" opacity="0.1"/><rect x="152" y="230" width="9" height="9" rx="2" fill="#7aa2f7" opacity="0.1"/><rect x="152" y="241" width="9" height="9" rx="2" fill="#7aa2f7" opacity="0.1"/><rect x="152" y="252" width="9" height="9" rx="2" fill="#7aa2f7" opacity="0.1"/><rect x="152" y="263" width="9" height="9" rx="2" fill="#7aa2f7" opacity="0.1"/><rect x="152" y="274" width="9" height="9" rx="2" fill="#7aa2f7" opacity="0.1"/><rect x="152" y="285" width="9" height="9" rx="2" fill="#7aa2f7" opacity="0.1"/><rect x="152" y="296" width="9" height="9" rx="2" fill="#7aa2f7" opacity="0.1"/><rect x="163" y="230" width="9" height="9" rx="2" fill="#7aa2f7" opacity="0.1"/><rect x="163" y="241" width="9" height="9" rx="2" fill="#7aa2f7" opacity="0.1"/><rect x="163" y="252" width="9" height="9" rx="2" fill="#7aa2f7" opacity="0.1"/><rect x="163" y="263" width="9" height="9" rx="2" fill="#7aa2f7" opacity="0.1"/><rect x="163" y="274" width="9" height="9" rx="2" fill="#7aa2f7" opacity="0.1"/><rect x="163" y="285" width="9" height="9" rx="2" fill="#7aa2f7" opacity="0.1"/><rect x="163" y="296" width="9" height="9" rx="2" fill="#7aa2f7" opacity="0.1"/><rect x="174" y="230" width="9" height="9" rx="2" fill="#7aa2f7" opacity="0.1"/><rect x="174" y="241" width="9" height="9" rx="2" fill="#7aa2f7" opacity="0.1"/><rect x="174" y="252" width="9" height="9" rx="2" fill="#7aa2f7" opacity="0.1"/><rect x="174" y="263" width="9" height="9" rx="2" fill="#7aa2f7" opacity="0.1"/><rect x="174" y="274" width="9" height="9" rx="2" fill="#7aa2f7" opacity="0.1"/><rect x="174" y="285" width="9" height="9" rx="2" fill="#7aa2f7" opacity="0.1"/><rect x="174" y="296" width="9" height="9" rx="2" fill="#7aa2f7" opacity="0.1"/><rect x="185" y="230" width="9" height="9" rx="2" fill="#7aa2f7" opacity="0.1"/><rect x="185" y="241" width="9" height="9" rx="2" fill="#7aa2f7" opacity="0.1"/><rect x="185" y="252" width="9" height="9" rx="2" fill="#7aa2f7" opacity="0.1"/><rect x="185" y="263" width="9" height="9" rx="2" fill="#7aa2f7" opacity="0.1"/><rect x="185" y="274" width="9" height="9" rx="2" fill="#7aa2f7" opacity="0.1"/><rect x="185" y="285" width="9" height="9" rx="2" fill="#7aa2f7" opacity="0.1"/><rect x="185" y="296" width="9" height="9" rx="2" fill="#7aa2f7" opacity="0.1"/><rect x="196" y="230" width="9" height="9" rx="2" fill="#7aa2f7" opacity="0.1"/><rect x="196" y="241" width="9" height="9" rx="2" fill="#7aa2f7" opacity="0.1"/><rect x="196" y="252" width="9" height="9" rx="2" fill="#7aa2f7" opacity="0.1"/><rect x="196" y="263" width="9" height="9" rx="2" fill="#7aa2f7" opacity="0.1"/><rect x="196" y="274" width="9" height="9" rx="2" fill="#7aa2f7" opacity="0.1"/><rect x="196" y="285" width="9" height="9" rx="2" fill="#7aa2f7" opacity="0.1"/><rect x="196" y="296" width="9" height="9" rx="2" fill="#7aa2f7" opacity="0.1"/><rect x="207" y="230" width="9" height="9" rx="2" fill="#7aa2f7" opacity="0.1"/><rect x="207" y="241" width="9" height="9" rx="2" fill="#7aa2f7" opacity="0.1"/><rect x="207" y="252" width="9" height="9" rx="2" fill="#7aa2f7" opacity="0.1"/><rect x="207" y="263" width="9" height="9" rx="2" fill="#7aa2f7" opacity="0.1"/><rect x="207" y="274" width="9" height="9" rx="2" fill="#7aa2f7" opacity="0.1"/><rect x="207" y="285" width="9" height="9" rx="2" fill="#7aa2f7" opacity="0.1"/><rect x="207" y="296" width="9" height="9" rx="2" fill="#7aa2f7" opacity="0.1"/><rect x="218" y="230" width="9" height="9" rx="2" fill="#7aa2f7" opacity="0.1"/><rect x="218" y="241" width="9" height="9" rx="2" fill="#7aa2f7" opacity="0.1"/><rect x="218" y="252" width="9" height="9" rx="2" fill="#7aa2f7" opacity="0.1"/><rect x="218" y="263" width="9" height="9" rx="2" fill="#7aa2f7" opacity="0.1"/><rect x="218" y="274" width="9" height="9" rx="2" fill="#7aa2f7" opacity="0.1"/><rect x="218" y="285" width="9" height="9" rx="2" fill="#7aa2f7" opacity="0.1"/><rect x="218" y="296" width="9" height="9" rx="2" fill="#7aa2f7" opacity="0.1"/><rect x="229" y="230" width="9" height="9" rx="2" fill="#7aa2f7" opacity="0.1"/><rect x="229" y="241" width="9" height="9" rx="2" fill="#7aa2f7" opacity="0.1"/><rect x="229" y="252" width="9" height="9" rx="2" fill="#7aa2f7" opacity="0.1"/><rect x="229" y="263" width="9" height="9" rx="2" fill="#7aa2f7" opacity="0.1"/><rect x="229" y="274" width="9" height="9" rx="2" fill="#7aa2f7" opacity="0.1"/><rect x="229" y="285" width="9" height="9" rx="2" fill="#7aa2f7" opacity="0.1"/><rect x="229" y="296" width="9" height="9" rx="2" fill="#7aa2f7" opacity="0.1"/><rect x="240" y="230" width="9" height="9" rx="2" fill="#7aa2f7" opacity="0.1"/><rect x="240" y="241" width="9" height="9" rx="2" fill="#7aa2f7" opacity="0.1"/><rect x="240" y="252" width="9" height="9" rx="2" fill="#7aa2f7" opacity="0.1"/><rect x="240" y="263" width="9" height="9" rx="2" fill="#7aa2f7" opacity="0.1"/><rect x="240" y="274" width="9" height="9" rx="2" fill="#7aa2f7" opacity="0.1"/><rect x="240" y="285" width="9" height="9" rx="2" fill="#7aa2f7" opacity="0.1"/><rect x="240" y="296" width="9" height="9" rx="2" fill="#7aa2f7" opacity="0.1"/><rect x="251" y="230" width="9" height="9" rx="2" fill="#7aa2f7" opacity="0.1"/><rect x="251" y="241" width="9" height="9" rx="2" fill="#7aa2f7" opacity="0.1"/><rect x="251" y="252" width="9" height="9" rx="2" fill="#7aa2f7" opacity="0.1"/><rect x="251" y="263" width="9" height="9" rx="2" fill="#7aa2f7" opacity="0.1"/><rect x="251" y="274" width="9" height="9" rx="2" fill="#7aa2f7" opacity="0.1"/><rect x="251" y="285" width="9" height="9" rx="2" fill="#7aa2f7" opacity="0.1"/><rect x="251" y="296" width="9" height="9" rx="2" fill="#7aa2f7" opacity="0.1"/><rect x="262" y="230" width="9" height="9" rx="2" fill="#7aa2f7" opacity="0.1"/><rect x="262" y="241" width="9" height="9" rx="2" fill="#7aa2f7" opacity="0.1"/><rect x="262" y="252" width="9" height="9" rx="2" fill="#7aa2f7" opacity="0.1"/><rect x="262" y="263" width="9" height="9" rx="2" fill="#7aa2f7" opacity="0.1"/><rect x="262" y="274" width="9" height="9" rx="2" fill="#7aa2f7" opacity="0.1"/><rect x="262" y="285" width="9" height="9" rx="2" fill="#7aa2f7" opacity="0.1"/><rect x="262" y="296" width="9" height="9" rx="2" fill="#7aa2f7" opacity="0.1"/><rect x="273" y="230" width="9" height="9" rx="2" fill="#7aa2f7" opacity="0.1"/><rect x="273" y="241" width="9" height="9" rx="2" fill="#7aa2f7" opacity="0.1"/><rect x="273" y="252" width="9" height="9" rx="2" fill="#7aa2f7" opacity="0.1"/><rect x="273" y="263" width="9" height="9" rx="2" fill="#7aa2f7" opacity="0.1"/><rect x="273" y="274" width="9" height="9" rx="2" fill="#7aa2f7" opacity="0.1"/><rect x="273" y="285" width="9" height="9" rx="2" fill="#7aa2f7" opacity="0.1"/><rect x="273" y="296" width="9" height="9" rx="2" fill="#7aa2f7" opacity="0.1"/><rect x="284" y="230" width="9" height="9" rx="2" fill="#7aa2f7" opacity="0.1"/><rect x="284" y="241" width="9" height="9" rx="2" fill="#7aa2f7" opacity="0.1"/><rect x="284" y="252" width="9" height="9" rx="2" fill="#7aa2f7" opacity="0.1"/><rect x="284" y="263" width="9" height="9" rx="2" fill="#7aa2f7" opacity="0.1"/><rect x="284" y="274" width="9" height="9" rx="2" fill="#7aa2f7" opacity="0.1"/><rect x="284" y="285" width="9" height="9" rx="2" fill="#7aa2f7" opacity="0.8695652173913043"/><rect x="284" y="296" width="9" height="9" rx="2" fill="#7aa2f7" opacity="0.391304347826087"/><rect x="295" y="230" width="9" height="9" rx="2" fill="#7aa2f7" opacity="0.2"/><rect x="295" y="241" width="9" height="9" rx="2" fill="#7aa2f7" opacity="0.34782608695652173"/>

  <!-- Insights footer -->
  <line x1="20" y1="280" x2="580" y2="280" stroke="#2d3355" stroke-width="1"/>
  
  <text x="20" y="300" font-family="Segoe UI, system-ui, sans-serif" font-size="11" fill="#a9b1d6">Productivity</text>
  <text x="20" y="314" font-family="Segoe UI, system-ui, sans-serif" font-size="16" font-weight="700" fill="#f7768e">3/100</text>

  <text x="140" y="300" font-family="Segoe UI, system-ui, sans-serif" font-size="11" fill="#a9b1d6">Consistency</text>
  <text x="140" y="314" font-family="Segoe UI, system-ui, sans-serif" font-size="16" font-weight="700" fill="#f7768e">0/100</text>

  <text x="300" y="300" font-family="Segoe UI, system-ui, sans-serif" font-size="11" fill="#a9b1d6">Activity</text>
  <text x="300" y="314" font-family="Segoe UI, system-ui, sans-serif" font-size="16" font-weight="700" fill="#f7768e">2/100</text>

  <text x="460" y="300" font-family="Segoe UI, system-ui, sans-serif" font-size="11" fill="#a9b1d6">Active Days</text>
  <text x="460" y="314" font-family="Segoe UI, system-ui, sans-serif" font-size="16" font-weight="700" fill="#7aa2f7">6.83%</text>
</svg>