<svg xmlns="http://www.w3.org/2000/svg" width="360" height="282" viewBox="0 0 360 282">
  <rect width="360" height="282" rx="12" fill="#1a1b27" stroke="#2d3355" stroke-width="1.5"/>

  <text x="20" y="30" font-family="Segoe UI, system-ui, sans-serif" font-size="14" font-weight="700" fill="#e0e0e0">Most Used Languages</text>

  
  <text x="20" y="56" font-family="Segoe UI, system-ui, sans-serif" font-size="11" fill="#a9b1d6">TypeScript</text>
  <rect x="20" y="62" width="200" height="12" rx="4" fill="#3178c6" opacity="0.8"/>
  <text x="230" y="72" font-family="Segoe UI, system-ui, sans-serif" font-size="11" fill="#a9b1d6" text-anchor="end">69.64%</text>
  <text x="20" y="88" font-family="Segoe UI, system-ui, sans-serif" font-size="11" fill="#a9b1d6">Python</text>
  <rect x="20" y="94" width="47.38655944859276" height="12" rx="4" fill="#3572a5" opacity="0.8"/>
  <text x="230" y="104" font-family="Segoe UI, system-ui, sans-serif" font-size="11" fill="#a9b1d6" text-anchor="end">16.5%</text>
  <text x="20" y="120" font-family="Segoe UI, system-ui, sans-serif" font-size="11" fill="#a9b1d6">Astro</text>
  <rect x="20" y="126" width="32.96955772544515" height="12" rx="4" fill="#ff5a03" opacity="0.8"/>
  <text x="230" y="136" font-family="Segoe UI, system-ui, sans-serif" font-size="11" fill="#a9b1d6" text-anchor="end">11.48%</text>
  <text x="20" y="152" font-family="Segoe UI, system-ui, sans-serif" font-size="11" fill="#a9b1d6">JavaScript</text>
  <rect x="20" y="158" width="4" height="12" rx="4" fill="#f1e05a" opacity="0.8"/>
  <text x="230" y="168" font-family="Segoe UI, system-ui, sans-serif" font-size="11" fill="#a9b1d6" text-anchor="end">1.36%</text>
  <text x="20" y="184" font-family="Segoe UI, system-ui, sans-serif" font-size="11" fill="#a9b1d6">Dockerfile</text>
  <rect x="20" y="190" width="4" height="12" rx="4" fill="#384d54" opacity="0.8"/>
  <text x="230" y="200" font-family="Segoe UI, system-ui, sans-serif" font-size="11" fill="#a9b1d6" text-anchor="end">0.58%</text>
  <text x="20" y="216" font-family="Segoe UI, system-ui, sans-serif" font-size="11" fill="#a9b1d6">CSS</text>
  <rect x="20" y="222" width="4" height="12" rx="4" fill="#563d7c" opacity="0.8"/>
  <text x="230" y="232" font-family="Segoe UI, system-ui, sans-serif" font-size="11" fill="#a9b1d6" text-anchor="end">0.45%</text>
</svg>